# Blender 3.4.1
# www.blender.org
o screen-right
v 1.839674 0.002660 -3.313590
v 1.839674 2.052912 -3.313590
v 1.839674 0.002660 -3.204910
v 1.839674 2.052912 -3.204910
v 0.002978 0.002660 -3.204910
v 0.002978 2.052912 -3.204910
v 0.002978 0.002660 -3.313590
v 0.002978 2.052912 -3.313590
vn 1.0000 -0.0000 -0.0000
vn -0.0000 1.0000 -0.0000
vn -0.0000 -1.0000 -0.0000
vn -0.0000 -0.0000 1.0000
vn -1.0000 -0.0000 -0.0000
vt 0.999974 0.025855
vt 0.974152 0.000033
vt 0.999974 0.974431
vt 0.974152 1.000253
vt 0.974152 0.025855
vt 0.974152 0.974431
vt 0.511627 0.025830
vt 0.511704 0.974669
vt 0.511312 0.000033
vt 0.485805 0.025830
vt 0.511514 1.000253
vt 0.486120 0.974431
s 0
f 1/1/1 2/3/1 4/6/1 3/5/1
f 6/8/2 4/6/2 2/4/2 8/11/2
f 3/5/3 5/7/3 7/9/3 1/2/3
f 3/5/4 4/6/4 6/8/4 5/7/4
f 8/12/5 7/10/5 5/7/5 6/8/5
