# Blender 3.4.1
# www.blender.org
o screen
v 1.839674 0.075856 -3.231588
v 1.839674 2.052912 -3.231588
v 1.839674 0.075856 -3.204910
v 1.839674 2.052912 -3.204910
v -1.833718 0.075856 -3.231588
v -1.833718 2.052912 -3.231588
v -1.833718 0.075856 -3.204910
v -1.833718 2.052912 -3.204910
vn 1.0000 -0.0000 -0.0000
vn -0.0000 -0.0000 1.0000
vn -1.0000 -0.0000 -0.0000
vn -0.0000 -1.0000 -0.0000
vn -0.0000 1.0000 -0.0000
vt 0.999095 0.008064
vt 0.991936 0.000905
vt 0.999095 0.991936
vt 0.991936 0.999095
vt 0.991936 0.008064
vt 0.991936 0.991936
vt -0.000905 0.008064
vt 0.006253 0.000905
vt -0.000905 0.991936
vt 0.006253 0.999095
vt 0.006253 0.008064
vt 0.006253 0.991936
s 0
f 1/1/1 2/3/1 4/6/1 3/5/1
f 3/5/2 4/6/2 8/12/2 7/11/2
f 7/11/3 8/12/3 6/9/3 5/7/3
f 3/5/4 7/11/4 5/8/4 1/2/4
f 8/12/5 4/6/5 2/4/5 6/10/5
