# Blender 3.4.1
# www.blender.org
o screen-left
v -1.833718 0.002660 -3.313590
v -1.833718 2.052912 -3.313590
v -1.833718 0.002660 -3.204910
v -1.833718 2.052912 -3.204910
v 0.002978 0.002660 -3.204910
v 0.002978 2.052912 -3.204910
v 0.002978 0.002660 -3.313590
v 0.002978 2.052912 -3.313590
vn -0.0000 -0.0000 1.0000
vn -1.0000 -0.0000 -0.0000
vn -0.0000 -1.0000 -0.0000
vn -0.0000 1.0000 -0.0000
vn 1.0000 -0.0000 -0.0000
vt 0.000061 0.025657
vt 0.026434 0.000000
vt 0.000061 0.973165
vt 0.027149 1.000253
vt 0.027149 0.025657
vt 0.027149 0.973165
vt 0.511468 0.025657
vt 0.511468 0.974666
vt 0.511468 0.000239
vt 0.538555 0.025657
vt 0.511468 1.000253
vt 0.538555 0.974666
s 0
f 5/7/1 6/8/1 4/6/1 3/5/1
f 3/5/2 4/6/2 2/3/2 1/1/2
f 5/7/3 3/5/3 1/2/3 7/9/3
f 4/6/4 6/8/4 8/11/4 2/4/4
f 8/12/5 6/8/5 5/7/5 7/10/5