# Blender 3.4.1
# www.blender.org
o Cube.003
v 2.896739 0.000000 -1.202626
v 2.896739 0.102474 -1.202626
v 2.896743 0.000000 31.117947
v 2.896743 0.102474 31.117947
v -2.896741 0.000000 -1.202626
v -2.896741 0.102474 -1.202626
v -2.896737 0.000000 31.117947
v -2.896737 0.102474 31.117947
v -18.392460 0.000000 -14.824271
v -18.392460 0.102474 -14.824271
v 18.392452 0.000000 -14.824275
v 18.392452 0.102474 -14.824275
v -18.392458 0.000000 -1.202624
v -18.392458 0.102474 -1.202624
v 18.392454 0.000000 -1.202628
v 18.392454 0.102474 -1.202628
vn 1.0000 -0.0000 -0.0000
vn -0.0000 -0.0000 1.0000
vn -1.0000 -0.0000 -0.0000
vn -0.0000 -0.0000 -1.0000
vn -0.0000 -1.0000 -0.0000
vn -0.0000 1.0000 -0.0000
vt 0.375000 0.000000
vt 0.375000 1.000000
vt 0.125000 0.750000
vt 0.625000 0.000000
vt 0.625000 1.000000
vt 0.875000 0.750000
vt 0.375000 0.250000
vt 0.125000 0.500000
vt 0.625000 0.250000
vt 0.875000 0.500000
vt 0.375000 0.750000
vt 0.625000 0.750000
vt 0.375000 0.500000
vt 0.625000 0.500000
vt 0.375000 0.000000
vt 0.375000 1.000000
vt 0.125000 0.750000
vt 0.625000 0.000000
vt 0.625000 1.000000
vt 0.875000 0.750000
vt 0.375000 0.250000
vt 0.125000 0.500000
vt 0.625000 0.250000
vt 0.875000 0.500000
vt 0.375000 0.750000
vt 0.625000 0.750000
vt 0.375000 0.500000
vt 0.625000 0.500000
s 0
f 1/1/1 2/4/1 4/9/1 3/7/1
f 3/7/2 4/9/2 8/14/2 7/13/2
f 7/13/3 8/14/3 6/12/3 5/11/3
f 5/11/4 6/12/4 2/5/4 1/2/4
f 3/8/5 7/13/5 5/11/5 1/3/5
f 8/14/6 4/10/6 2/6/6 6/12/6
f 9/15/4 10/18/4 12/23/4 11/21/4
f 11/21/1 12/23/1 16/28/1 15/27/1
f 15/27/2 16/28/2 14/26/2 13/25/2
f 13/25/3 14/26/3 10/19/3 9/16/3
f 11/22/5 15/27/5 13/25/5 9/17/5
f 16/28/6 12/24/6 10/20/6 14/26/6
