# Blender 3.4.1
# www.blender.org
o stageBox
v -0.097022 -0.024144 0.176051
v -0.097022 0.075856 0.176051
v -0.097022 -0.024144 -0.023949
v -0.097022 0.075856 -0.023949
v 0.102978 -0.024144 0.176051
v 0.102978 0.075856 0.176051
v 0.102978 -0.024144 -0.023949
v 0.102978 0.075856 -0.023949
vn -1.0000 -0.0000 -0.0000
vn -0.0000 -0.0000 -1.0000
vn 1.0000 -0.0000 -0.0000
vn -0.0000 -0.0000 1.0000
vn -0.0000 1.0000 -0.0000
vt 0.464138 0.284428
vt 0.485290 0.263276
vt 0.485290 0.284428
vt 0.464138 0.326732
vt 0.485290 0.347884
vt 0.485290 0.326732
vt 0.548746 0.284428
vt 0.527594 0.263276
vt 0.527594 0.284428
vt 0.527594 0.347884
vt 0.548746 0.326732
vt 0.527594 0.326732
s 0
f 1/1/1 2/3/1 4/6/1 3/4/1
f 3/5/2 4/6/2 8/12/2 7/10/2
f 7/11/3 8/12/3 6/9/3 5/7/3
f 5/8/4 6/9/4 2/3/4 1/2/4
f 8/12/5 4/6/5 2/3/5 6/9/5
