# Blender 3.4.1
# www.blender.org
o Cube.005
v -2.277365 -0.056021 -1.794214
v -2.277365 0.012365 -1.794214
v 1.401127 -0.056021 -1.794214
v 1.401127 0.012365 -1.794214
v -2.277364 -0.056021 -0.432049
v -2.277364 0.012365 -0.432049
v 1.401128 -0.056021 -0.432049
v 1.401128 0.012365 -0.432049
v -0.148444 -0.056021 -0.432049
v -0.148444 0.012365 -0.432049
v -0.148444 -0.056021 2.800009
v -0.148444 0.012365 2.800009
v -0.727793 -0.056021 -0.432049
v -0.727793 0.012365 -0.432049
v -0.727792 -0.056021 2.800009
v -0.727792 0.012365 2.800009
v -0.148444 -0.056021 1.587993
v -0.148444 0.012365 1.587993
v -0.727792 -0.056021 1.587993
v -0.727792 0.012365 1.587993
v -0.538662 -0.056021 2.800009
v -0.538662 0.012365 2.800009
v -0.538662 -0.056021 -0.432049
v -0.538662 0.012365 -0.432049
v -0.538118 0.012365 1.586748
v -0.538118 -0.056021 1.586748
v -0.337791 -0.056021 2.800009
v -0.337792 0.012365 -0.432049
v -0.338118 -0.056021 1.586748
v -0.337791 0.012365 2.800009
v -0.337792 -0.056021 -0.432049
v -0.338118 0.012365 1.586748
v -0.148444 -0.056021 1.386978
v -0.727792 0.012365 1.386978
v -0.148444 0.012365 1.386978
v -0.727792 -0.056021 1.386978
v -0.538118 0.012365 1.386748
v -0.538118 -0.056021 1.386748
v -0.338118 -0.056021 1.386748
v -0.338118 0.012365 1.386748
vn -0.0000 -0.0000 -1.0000
vn 1.0000 -0.0000 -0.0000
vn -0.0000 -0.0000 1.0000
vn -1.0000 -0.0000 -0.0000
vn -0.0000 -1.0000 -0.0000
vn -0.0000 1.0000 -0.0000
vt 0.935255 0.870658
vt 1.000000 0.000000
vt 0.322410 0.870658
vt 0.919069 0.870658
vt 0.983814 0.000000
vt 0.000000 0.000000
vt 0.935256 0.000000
vt 1.000000 0.644819
vt 0.322410 0.000000
vt 0.919069 0.000000
vt 0.983814 0.644819
vt 0.000000 0.870658
vt 0.951442 0.000000
vt 1.000000 0.322409
vt 0.644819 0.870658
vt 0.935256 0.000000
vt 0.983814 0.322409
vt 0.322409 0.000000
vt 1.000000 0.322409
vt 0.951442 0.870658
vt 0.644819 0.000000
vt 0.983814 0.322409
vt 0.935256 0.870658
vt 0.322409 0.870658
vt 0.661005 0.764992
vt 0.919069 0.000000
vt 0.983814 0.764992
vt 0.644819 0.764992
vt 0.644819 0.000000
vt 0.967628 0.764992
vt 0.983814 0.000000
vt 0.677191 0.902118
vt 0.919069 0.764992
vt 0.967628 0.000000
vt 0.644819 0.764992
vt 0.661005 0.902118
vt 0.967628 0.000000
vt 0.781944 0.000000
vt 0.661005 0.902118
vt 0.951442 0.000000
vt 0.781944 0.000000
vt 0.644819 0.902118
vt 0.677191 0.764992
vt 0.781944 0.764992
vt 0.967628 0.764992
vt 0.661005 0.764992
vt 0.951442 0.764992
vt 0.781944 0.764992
vt 0.983814 0.286871
vt 0.919069 0.478122
vt 0.967628 0.286871
vt 0.644819 0.478122
vt 0.781944 0.478122
vt 0.967628 0.478121
vt 0.781944 0.478122
vt 0.951442 0.478121
vt 0.826709 0.764992
vt 0.677191 0.809757
vt 0.661005 0.809757
vt 0.737179 0.764992
vt 0.826709 0.000000
vt 0.661005 0.857353
vt 0.737179 0.000000
vt 0.644819 0.857353
vt 0.737050 0.477827
vt 0.709563 0.764992
vt 0.677191 0.812330
vt 0.826838 0.477827
vt 0.725749 0.764992
vt 0.693377 0.812330
vt 0.677191 0.857301
vt 0.874253 0.764992
vt 0.689635 0.000000
vt 0.644819 0.809809
vt 0.874176 0.477827
vt 0.741935 0.812330
vt 0.693377 0.764992
vt 0.661005 0.857301
vt 0.689635 0.764992
vt 0.874253 0.000000
vt 0.661005 0.809809
vt 0.689713 0.477827
vt 0.725749 0.812330
vt 0.677191 0.764992
vt 0.919069 0.430544
vt 0.983814 0.334449
vt 0.781944 0.430544
vt 0.951442 0.430544
vt 0.967628 0.334449
vt 0.644819 0.430544
vt 0.781944 0.430544
vt 0.967628 0.430544
vt 0.737050 0.430489
vt 0.709563 0.812330
vt 0.693377 0.764992
vt 0.826838 0.430489
vt 0.725749 0.812330
vt 0.709563 0.764992
vt 0.874176 0.430489
vt 0.709563 0.812330
vt 0.741935 0.764992
vt 0.689713 0.430489
vt 0.693377 0.812330
vt 0.725749 0.764992
s 0
f 1/1/1 2/4/1 4/10/1 3/7/1
f 3/8/2 4/11/2 8/22/2 7/19/2
f 7/20/3 8/23/3 6/16/3 5/13/3
f 5/14/4 6/17/4 2/5/4 1/2/4
f 3/9/5 7/21/5 5/15/5 1/3/5
f 8/24/6 4/12/6 2/6/6 6/18/6
f 17/49/2 18/51/2 12/34/2 11/31/2
f 21/58/3 22/59/3 16/46/3 15/43/3
f 36/92/4 34/88/4 14/40/4 13/37/4
f 31/81/1 28/74/1 10/28/1 9/25/1
f 38/96/5 36/91/5 13/38/5 23/61/5
f 40/102/6 35/90/6 10/29/6 28/73/6
f 30/79/6 12/35/6 18/52/6 32/82/6
f 21/57/5 15/44/5 19/53/5 26/68/5
f 15/45/4 16/47/4 20/56/4 19/54/4
f 33/86/2 35/89/2 18/51/2 17/49/2
f 27/72/5 21/57/5 26/68/5 29/75/5
f 16/48/6 22/60/6 25/65/6 20/55/6
f 34/87/6 37/93/6 24/63/6 14/41/6
f 38/96/5 23/61/5 31/80/5 39/99/5
f 13/39/1 14/42/1 24/64/1 23/62/1
f 27/71/3 30/78/3 22/59/3 21/58/3
f 11/32/3 12/36/3 30/78/3 27/71/3
f 33/85/5 39/99/5 31/80/5 9/26/5
f 11/33/5 27/72/5 29/75/5 17/50/5
f 22/60/6 30/79/6 32/82/6 25/65/6
f 40/102/6 28/73/6 24/63/6 37/93/6
f 23/62/1 24/64/1 28/74/1 31/81/1
f 17/50/5 29/75/5 39/99/5 33/85/5
f 20/55/6 25/65/6 37/93/6 34/87/6
f 9/27/2 10/30/2 35/89/2 33/86/2
f 32/82/6 18/52/6 35/90/6 40/102/6
f 26/68/5 19/53/5 36/91/5 38/96/5
f 19/54/4 20/56/4 34/88/4 36/92/4
f 38/97/2 37/94/2 25/66/2 26/69/2
f 38/98/3 39/100/3 40/103/3 37/95/3
f 39/101/4 29/76/4 32/83/4 40/104/4
f 26/70/1 25/67/1 32/84/1 29/77/1
