# Blender 3.4.1
# www.blender.org
o stage
v -1.836268 0.007471 -3.204910
v -1.836268 0.075856 -3.204910
v 1.842224 0.007471 -3.204911
v 1.842224 0.075856 -3.204911
v -1.836268 0.007471 -1.842745
v -1.836268 0.075856 -1.842745
v 1.842224 0.007471 -1.842746
v 1.842224 0.075856 -1.842746
v 0.292652 0.007471 -1.842746
v 0.292652 0.075856 -1.842746
v 0.292653 0.007471 1.389312
v 0.292653 0.075856 1.389312
v -0.286696 0.007471 -1.842746
v -0.286696 0.075856 -1.842746
v -0.286696 0.007471 1.389312
v -0.286696 0.075856 1.389312
v 0.292652 0.007471 0.177296
v 0.292652 0.075856 0.177296
v -0.286696 0.007471 0.177296
v -0.286696 0.075856 0.177296
v -0.097566 0.007471 1.389312
v -0.097566 0.075856 1.389312
v -0.097566 0.075856 -1.842746
v -0.097022 0.075856 0.176051
v 0.103305 0.007471 1.389312
v 0.103305 0.075856 -1.842746
v 0.103305 0.075856 1.389312
v 0.102978 0.075856 0.176051
v 0.292652 0.007471 -0.023718
v -0.286696 0.075856 -0.023718
v 0.292652 0.075856 -0.023718
v -0.286696 0.007471 -0.023718
v -0.097022 0.075856 -0.023949
v 0.102978 0.075856 -0.023949
vn 1.0000 -0.0000 -0.0000
vn -0.0000 -0.0000 1.0000
vn -1.0000 -0.0000 -0.0000
vn -0.0000 1.0000 -0.0000
vt 0.000000 0.000000
vt 0.000000 0.017924
vt 0.000000 1.000000
vt 0.000000 0.982076
vt 0.374955 0.017924
vt 0.357030 0.000000
vt 0.357030 0.017924
vt 0.357030 1.000000
vt 0.374955 0.982076
vt 0.357031 0.982076
vt 0.990106 0.988883
vt 0.969756 0.988883
vt 0.990106 0.027100
vt 0.969756 0.006750
vt 0.969756 0.027100
vt 0.777006 0.988883
vt 0.797356 0.988883
vt 0.797356 0.006750
vt 0.777006 0.027100
vt 0.797356 0.027100
vt 0.990106 0.387767
vt 0.969756 0.387767
vt 0.777006 0.387767
vt 0.797356 0.387767
vt 0.853637 0.006750
vt 0.853637 0.027100
vt 0.853636 0.988883
vt 0.853798 0.388137
vt 0.913411 0.006750
vt 0.913411 0.988883
vt 0.913411 0.027100
vt 0.913313 0.388137
vt 0.990106 0.447584
vt 0.797356 0.447584
vt 0.969756 0.447584
vt 0.777006 0.447584
vt 0.853798 0.447653
vt 0.913313 0.447653
s 0
f 3/3/1 4/4/1 8/10/1 7/8/1
f 7/9/2 8/10/2 6/7/2 5/5/2
f 5/6/3 6/7/3 2/2/3 1/1/3
f 8/10/4 4/4/4 2/2/4 6/7/4
f 17/21/1 18/22/1 12/15/1 11/13/1
f 21/25/2 22/26/2 16/20/2 15/18/2
f 32/36/3 30/34/3 14/17/3 13/16/3
f 34/38/4 31/35/4 10/12/4 26/30/4
f 27/31/4 12/15/4 18/22/4 28/32/4
f 15/19/3 16/20/3 20/24/3 19/23/3
f 29/33/1 31/35/1 18/22/1 17/21/1
f 16/20/4 22/26/4 24/28/4 20/24/4
f 30/34/4 33/37/4 23/27/4 14/17/4
f 25/29/2 27/31/2 22/26/2 21/25/2
f 11/14/2 12/15/2 27/31/2 25/29/2
f 22/26/4 27/31/4 28/32/4 24/28/4
f 34/38/4 26/30/4 23/27/4 33/37/4
f 20/24/4 24/28/4 33/37/4 30/34/4
f 9/11/1 10/12/1 31/35/1 29/33/1
f 28/32/4 18/22/4 31/35/4 34/38/4
f 19/23/3 20/24/3 30/34/3 32/36/3
