# Blender 3.4.1
# www.blender.org
o stage.001
v -1.836268 0.007471 -3.204910
v -1.836268 0.075856 -3.204910
v 1.842224 0.007471 -3.204911
v 1.842224 0.075856 -3.204911
v -1.836268 0.007471 -1.842745
v -1.836268 0.075856 -1.842745
v 1.842224 0.007471 -1.842746
v 1.842224 0.075856 -1.842746
v 0.292652 0.007471 -1.842746
v 0.292652 0.075856 -1.842746
v 0.292653 0.007471 1.389312
v 0.292653 0.075856 1.389312
v -0.286696 0.007471 -1.842746
v -0.286696 0.075856 -1.842746
v -0.286696 0.007471 1.389312
v -0.286696 0.075856 1.389312
vn 1.0000 -0.0000 -0.0000
vn -0.0000 -0.0000 1.0000
vn -1.0000 -0.0000 -0.0000
vn -0.0000 1.0000 -0.0000
vt 0.145204 0.993313
vt 0.158162 0.993313
vt 0.868156 0.993313
vt 0.855198 0.993313
vt 0.158162 0.722239
vt 0.145204 0.735197
vt 0.158162 0.735197
vt 0.868156 0.735197
vt 0.855198 0.722239
vt 0.855198 0.735197
vt 0.583912 0.720842
vt 0.569111 0.720842
vt 0.583912 0.021318
vt 0.569111 0.021318
vt 0.428920 0.720842
vt 0.443721 0.720842
vt 0.428920 0.021318
vt 0.443721 0.021318
s 0
f 3/3/1 4/4/1 8/10/1 7/8/1
f 7/9/2 8/10/2 6/7/2 5/5/2
f 5/6/3 6/7/3 2/2/3 1/1/3
f 8/10/4 4/4/4 2/2/4 6/7/4
f 12/14/1 11/13/1 9/11/1 10/12/1
f 16/18/3 14/16/3 13/15/3 15/17/3
f 12/14/4 10/12/4 14/16/4 16/18/4
f 12/14/2 16/18/2 15/17/2 11/13/2
